<svg width="37" height="34" viewBox="0 0 37 34" fill="none" xmlns="http://www.w3.org/2000/svg">
<path d="M25.8018 21.03C24.6918 21.6 23.8418 22.3401 23.2318 23.1801L14.1918 18.8101C14.2918 18.2501 14.3318 17.66 14.3118 17.03C14.3318 16.34 14.2418 15.7 14.0818 15.1C14.1318 15.09 14.1918 15.0899 14.2418 15.0699L23.5518 10.74C26.1618 14.99 32.7818 14.9 35.2218 10.09C38.3518 4.62997 32.7518 -1.41999 26.9918 0.510011C23.0618 1.69001 21.4118 5.09004 22.7518 8.91004L13.4118 13.26C13.4118 13.26 13.3518 13.31 13.3218 13.33C11.1818 9.96996 6.12182 8.99998 2.85182 12.23C-1.83818 16.43 1.58182 23.93 7.66182 23.91C10.4318 23.99 12.5318 22.77 13.5818 20.73L22.3818 24.98C21.9318 26.62 22.2218 28.47 23.3218 30.27C26.1418 35.68 34.0118 34.68 35.6918 28.91C37.7518 22.97 31.1318 18.06 25.8318 21.02L25.8018 21.03ZM24.5518 4.75C27.7918 -1.82 36.5218 3.21999 33.9918 9.48999C31.8418 13.82 26.2118 12.9101 24.3018 9.81006C24.3118 9.65006 24.3018 9.47996 24.2218 9.32996C24.1518 9.16996 24.0218 9.04995 23.8918 8.94995C23.4718 7.73995 23.5818 6.3 24.5518 4.75ZM34.3618 28.55C32.4718 35.24 21.5018 32.62 24.2118 25.64C26.1818 18.58 35.6918 21.92 34.3618 28.55Z" fill="#450D21"></path>
</svg>