<svg width="60" height="31" viewBox="0 0 60 31" fill="none" xmlns="http://www.w3.org/2000/svg">
<path d="M55.1199 3.75002C54.6399 2.90002 54.1399 2.07003 53.5999 1.26003C53.3899 1.00003 53.3499 0.719997 52.8399 0.349997C52.3599 0.0599969 51.8599 0.290034 51.4799 0.450034C48.5499 1.62003 45.4799 2.51004 42.3799 3.08004C42.0599 3.11004 41.3599 3.31004 41.0699 3.52004C41.5299 4.41004 41.9899 5.31004 42.4499 6.21004C40.9699 6.18004 39.5599 6.27005 38.1899 6.15005C34.9399 6.01005 31.5899 3.79999 28.3599 5.46999C25.7799 6.65999 24.2699 8.94005 23.0099 11.34L19.7799 11.72C17.8599 11.94 16.0299 11.81 14.3299 11.32C14.2999 11.32 14.2799 11.3 14.2499 11.3C14.5299 10.05 13.6699 8.86003 12.4899 8.51003C11.1899 7.96003 9.75994 7.32999 8.49994 6.71999C8.12994 6.50999 7.54994 6.70001 7.38994 7.11001L7.20994 7.46999C4.68994 12.2 2.27994 17.04 0.339942 22.04L0.189941 22.46C1.40994 23.81 2.91994 25.71 4.98994 25.39L5.19994 25.2C6.36994 24.14 7.40994 22.97 8.35994 21.75C8.40994 21.77 8.44994 21.81 8.50994 21.83C10.2299 22.38 12.0199 22.9 13.7399 23.56C13.7999 24.04 14.1699 24.48 14.8899 24.72C15.4899 24.99 16.2499 25.19 16.9399 25.08C16.9099 25.6 17.1499 26.12 17.6999 26.34C18.0199 26.56 18.5499 26.87 19.0999 26.93C19.2199 26.94 19.3399 26.93 19.4599 26.93C19.4699 27.41 19.7099 27.88 20.1699 28.07C20.7199 28.51 21.4599 28.78 22.1799 28.73C22.1899 29.2 22.4299 29.66 22.8599 29.85C23.4499 30.35 24.2799 30.68 25.0799 30.55C25.3999 30.47 25.7099 30.36 26.0099 30.25C26.8999 30.44 27.8099 30.54 28.7299 30.56C30.7599 30.84 33.0099 30.84 33.5699 28.64C35.7699 29.1 38.4499 29.27 39.1299 26.91C40.3999 27.05 41.6399 26.89 42.6399 25.94C42.9899 25.59 43.3899 24.87 43.5099 24.2C43.6999 24.18 43.8999 24.17 44.0999 24.13C45.5099 23.89 46.6899 22.53 46.8199 21.09C46.8399 20.66 46.9099 20.2901 46.3499 19.7801C46.2199 19.6901 46.1099 19.64 46.0099 19.61C46.9499 19.31 48.0199 19.26 49.0599 19.09C49.5999 20.13 50.1499 21.17 50.6999 22.2L51.6899 21.81C54.2199 20.45 57.0199 19.49 59.8999 18.95C59.3699 13.63 57.7499 8.43003 55.1399 3.76003L55.1199 3.75002ZM4.12994 23.2801C3.41994 23.1901 2.44994 22.67 1.71994 22.13C4.17994 17.42 6.23994 12.26 8.13994 7.44002C9.40994 8.05002 10.7599 8.81001 11.9999 9.49001C12.6099 9.74001 13.1799 10.39 12.8999 11.05C11.3599 13.97 9.64994 16.88 7.63994 19.5C6.56994 20.89 5.40994 22.21 4.12994 23.29V23.2801ZM16.4099 24.2C16.1499 24.2 15.8499 24.13 15.5399 24.06C15.4199 24.01 14.9299 23.84 14.9299 23.83C14.5799 23.44 14.6899 23.43 15.0999 23.09C16.5299 22.18 18.3999 21.33 19.9499 20.83C20.0399 20.93 20.2199 21.12 20.1999 21.14C20.2299 21.21 19.9399 21.65 19.9099 21.73C19.7899 21.93 19.6999 22.08 19.5499 22.22C19.2699 22.48 18.9499 22.93 18.7399 23.09C18.0999 23.48 17.2399 24.2 16.4099 24.21V24.2ZM18.0899 25.61C17.9099 25.46 17.8999 25.1901 17.9899 25.0301C18.0399 24.8801 18.6899 24.61 18.8399 24.51C20.7199 23.52 23.0499 22.42 24.8399 21.3C24.9099 21.27 25.1499 21.1 25.2299 21.1C25.2699 21.1 25.5099 21.39 25.4799 21.43C24.9299 22.76 23.6199 23.55 22.4699 24.37C22.2399 24.5 22.0099 24.65 21.7699 24.81C21.1399 25.13 20.5199 25.46 19.9199 25.83C19.8899 25.85 19.8699 25.89 19.8399 25.91C19.2699 26.08 18.6899 26.04 18.0799 25.6L18.0899 25.61ZM21.0699 27.62L20.5899 27.34C20.4399 27.21 20.4299 26.99 20.4799 26.84C20.5399 26.71 20.5599 26.67 20.7299 26.58C20.8199 26.54 20.9099 26.49 20.9999 26.44C20.9999 26.44 20.9999 26.44 21.0099 26.44C21.0999 26.39 21.1899 26.35 21.2699 26.3C21.8399 25.99 22.4799 25.65 23.0199 25.38C23.6699 25.02 25.3799 24.08 26.0199 23.76C26.1299 23.7 26.1299 23.7 26.1799 23.7C26.2899 23.83 26.3999 23.9501 26.4299 24.0301C26.3399 24.3501 25.9299 24.84 25.6899 25.11C24.9499 25.85 24.2999 26.71 23.3599 27.23C23.1199 27.35 22.8799 27.44 22.6399 27.63C22.1199 27.85 21.5899 27.92 21.0499 27.63L21.0699 27.62ZM23.2999 29.13C23.1199 28.95 23.1299 28.65 23.2999 28.49C23.5699 28.3 24.1699 28.06 24.4999 27.86C25.3699 27.37 26.4299 27.07 27.3499 26.71C27.7099 26.58 28.0699 26.33 28.4199 26.25C28.5199 26.38 28.6299 26.5 28.6499 26.57C28.5699 26.87 28.2399 27.22 28.0299 27.49C27.8699 27.69 27.5499 27.94 27.3099 28.22C26.8799 28.75 26.3499 28.95 25.7699 29.27C24.9199 29.81 24.0799 29.7 23.3199 29.12L23.2999 29.13ZM29.8599 29.69C29.1199 29.6 28.3499 29.48 27.5699 29.33C27.7299 29.2 27.8999 29.07 28.0399 28.91C28.4099 28.54 28.9899 28.03 29.3499 27.47C30.1599 27.76 30.9699 27.98 31.7799 28.18C31.8099 28.2 31.8499 28.22 31.8999 28.23L32.3299 28.32C32.4799 28.36 32.6399 28.4 32.7999 28.43C32.4499 29.66 31.1499 29.86 29.8499 29.67L29.8599 29.69ZM42.2499 22.67C40.0799 22.41 37.7499 21.83 35.6499 21.19C34.9999 20.99 34.6699 21.95 35.2999 22.19C37.5599 23.02 39.6899 23.7 42.0699 24.14C42.1299 24.14 42.1899 24.14 42.2499 24.15C42.1699 24.5 41.9999 24.83 41.7599 25.09C41.1899 25.73 40.0599 25.87 39.0099 25.7C36.7999 25.36 34.4599 24.81 32.3399 24.13C32.0699 24.04 31.7699 24.18 31.6699 24.45C31.5699 24.72 31.7199 25.03 31.9899 25.12C33.1499 25.53 34.2499 25.8 35.3899 26.09C35.9299 26.19 36.4999 26.33 37.0799 26.47C37.1399 26.5 37.1999 26.53 37.2799 26.54L37.5599 26.58C37.7299 26.62 37.8899 26.65 38.0599 26.69C37.9799 26.94 37.8299 27.18 37.6299 27.38C37.0899 27.92 36.0799 28.01 35.1599 27.93C33.3299 27.71 31.3999 27.29 29.6399 26.74C29.7099 26.39 29.6399 26.04 29.3299 25.7C29.1799 25.48 28.9199 25.21 28.6799 25.18C28.0899 24.99 27.3899 25.49 26.8799 25.69C26.6999 25.77 26.5099 25.84 26.3299 25.91C27.1099 25.1 27.9599 24.14 27.1399 23.17C26.8599 22.76 26.4899 22.57 26.0499 22.62C26.5799 21.87 26.7499 21.08 26.0099 20.38C25.5299 19.79 24.8099 20 24.2799 20.34C23.1499 21 21.9399 21.74 20.7599 22.27C20.7599 22.27 20.7599 22.27 20.7499 22.27C20.8499 22.11 20.9399 21.95 21.0299 21.8C21.1199 21.63 21.2599 21.36 21.2299 21.04C21.1899 20.6 20.9699 20.37 20.7399 20.11C20.4999 19.69 19.8199 19.67 19.4999 19.79C17.7099 20.42 16.0599 21.16 14.4399 22.2C14.3999 22.23 14.3699 22.26 14.3399 22.29C12.7599 21.51 11.1399 20.8001 9.55994 20.0301C11.1899 17.6201 12.5299 15.02 13.7599 12.37C13.8299 12.39 13.8899 12.41 13.9699 12.44C15.2499 12.81 16.5899 12.99 17.9799 12.99C18.6099 12.99 19.2399 12.95 19.8799 12.88L22.3299 12.59C22.0399 13.18 21.7599 13.76 21.4699 14.33C21.3299 14.68 21.2399 14.63 21.1699 15.2C21.1299 15.54 21.4599 15.94 21.7199 16.05C22.7599 16.53 23.9499 16.33 24.8599 16.08C26.7399 15.7 27.6599 13.57 28.8599 12.15C30.7499 14.36 33.1199 16.08 35.5799 17.54C38.0999 19.01 40.7499 20.22 43.5499 21.17C43.6999 21.26 43.8699 21.32 44.0899 21.34C44.2499 21.35 44.4699 21.39 44.7099 21.43C44.4099 22.39 43.2199 22.79 42.2299 22.65L42.2499 22.67ZM44.2699 19.14C38.9899 17.67 33.5499 15.37 29.6099 11.46C30.2999 10.93 31.1099 10.7 32.2299 11.11C32.5599 11.28 32.8399 10.77 32.5199 10.58C31.3099 9.80004 29.8399 10.2 28.7399 11.01C28.6399 11.05 28.5499 11.13 28.4899 11.22C28.2299 11.44 27.9899 11.68 27.7999 11.93C26.7199 13.22 25.8999 14.61 24.5799 14.87C23.9399 15.02 23.2999 15.08 22.7799 14.96C24.8999 10.97 27.7399 5.07003 33.1899 6.95003C36.2199 8.15003 39.8199 8.07001 42.8799 7.05001C44.6099 10.42 46.3299 13.83 48.0899 17.22C46.7599 17.71 45.2899 18.18 44.2799 19.13L44.2699 19.14ZM41.9799 3.98C42.2599 4.17 42.1699 4.17005 42.5599 4.09005C45.8899 3.50005 49.1999 2.46001 52.3199 1.24001C55.7999 6.13001 57.9699 12.07 58.7299 18.05C56.3699 18.21 54.0099 18.66 51.7199 19.39C48.5399 14.24 45.2199 9.21 41.9799 3.98Z" fill="#450D21"></path>
</svg>