<svg width="44" height="48" viewBox="0 0 44 48" fill="none" xmlns="http://www.w3.org/2000/svg">
  
  <path d="M22 1C22 1 22.8 1 22.8 2.2L22.8 8.5C22.8 8.5 22.8 9.2 22 9.2C21.2 9.2 21.2 8.5 21.2 8.5L21.2 2.2C21.2 1 22 1 22 1Z" fill="#450D21"></path>
  <circle cx="22" cy="1.8" r="1.8" fill="#450D21"></circle>
  
  <path d="M10.5 9.5C9 9.5 7.5 11 7.5 12.5V21C7.5 22.5 9 24 10.5 24H33.5C35 24 36.5 22.5 36.5 21V12.5C36.5 11 35 9.5 33.5 9.5H10.5Z" fill="#450D21"></path>
  
  <ellipse cx="16.2" cy="16.5" rx="2.8" ry="3" fill="#fbf0e5"></ellipse>
  <ellipse cx="27.8" cy="16.5" rx="2.8" ry="3" fill="#fbf0e5"></ellipse>
  <circle cx="16.8" cy="16.2" r="1.2" fill="#450D21"></circle>
  <circle cx="28.4" cy="16.2" r="1.2" fill="#450D21"></circle>
  
  <rect x="15" y="20.5" width="14" height="1.4" rx="0.7" fill="#fbf0e5"></rect>
  
  <rect x="19" y="24" width="6" height="3" rx="1" fill="#450D21"></rect>
  
  <path d="M8.5 27C7 27 5.5 28.5 5.5 30V40C5.5 41.5 7 43 8.5 43H35.5C37 43 38.5 41.5 38.5 40V30C38.5 28.5 37 27 35.5 27H8.5Z" fill="#450D21"></path>
  
  <rect x="14" y="30" width="16" height="10" rx="2" fill="#fbf0e5" opacity="0.25"></rect>
  
  <circle cx="18" cy="33.5" r="1.5" fill="#fbf0e5" opacity="0.6"></circle>
  <circle cx="22" cy="33.5" r="1.5" fill="#fbf0e5" opacity="0.6"></circle>
  <circle cx="26" cy="33.5" r="1.5" fill="#fbf0e5" opacity="0.6"></circle>
  
  <rect x="15.5" y="37" width="13" height="1" rx="0.5" fill="#fbf0e5" opacity="0.2"></rect>
  
  <path d="M5.5 29.5C5.5 29.5 3.2 29.5 2 31C0.8 32.5 1 35 2.5 36.2C3.5 37 5.5 36.5 5.5 36.5" fill="#450D21"></path>
  
  <path d="M38.5 29.5C38.5 29.5 40.8 29.5 42 31C43.2 32.5 43 35 41.5 36.2C40.5 37 38.5 36.5 38.5 36.5" fill="#450D21"></path>
  
  <rect x="13" y="43" width="5" height="4" rx="1.5" fill="#450D21"></rect>
  
  <rect x="26" y="43" width="5" height="4" rx="1.5" fill="#450D21"></rect>
</svg>